<svg xmlns="http://www.w3.org/2000/svg" width="32" height="32" viewBox="0 0 32 32">
  <defs>
    <linearGradient id="magicGradient" x1="0%" y1="0%" x2="100%" y2="100%">
      <stop offset="0%" stop-color="#1890ff"/>
      <stop offset="50%" stop-color="#722ed1"/>
      <stop offset="100%" stop-color="#eb2f96"/>
    </linearGradient>
    <filter id="glow">
      <feGaussianBlur stdDeviation="1" result="coloredBlur"/>
      <feMerge> 
        <feMergeNode in="coloredBlur"/>
        <feMergeNode in="SourceGraphic"/>
      </feMerge>
    </filter>
  </defs>
  
  <!-- 背景圆形 -->
  <circle cx="16" cy="16" r="15" fill="url(#magicGradient)" opacity="0.1"/>
  
  <!-- 主要图片框架 -->
  <rect x="6" y="8" width="14" height="10" rx="2" fill="none" stroke="url(#magicGradient)" stroke-width="2"/>
  
  <!-- 图片内容示意 -->
  <circle cx="10" cy="12" r="1.5" fill="url(#magicGradient)" opacity="0.7"/>
  <path d="M8 16 L12 13 L16 15 L18 14" stroke="url(#magicGradient)" stroke-width="1.5" fill="none" opacity="0.7"/>
  
  <!-- 魔法星星 -->
  <g filter="url(#glow)">
    <path d="M22 6 L23 8 L25 8 L23.5 9.5 L24 12 L22 11 L20 12 L20.5 9.5 L19 8 L21 8 Z" fill="#ffd700"/>
    <path d="M26 14 L26.5 15 L27.5 15 L26.8 15.8 L27 17 L26 16.5 L25 17 L25.2 15.8 L24.5 15 L25.5 15 Z" fill="#ffd700"/>
    <path d="M24 22 L24.5 23 L25.5 23 L24.8 23.8 L25 25 L24 24.5 L23 25 L23.2 23.8 L22.5 23 L23.5 23 Z" fill="#ffd700"/>
  </g>
  
  <!-- 魔法光效 -->
  <path d="M8 20 Q12 18 16 20 Q20 22 24 20" stroke="#ffd700" stroke-width="1" fill="none" opacity="0.6"/>
  <path d="M6 24 Q10 22 14 24 Q18 26 22 24" stroke="#ffd700" stroke-width="1" fill="none" opacity="0.4"/>
</svg>